<?xml version="1.0" encoding="utf-8"?>
<!-- Generator: Adobe Illustrator 23.0.5, SVG Export Plug-In . SVG Version: 6.00 Build 0)  -->
<svg version="1.1" id="Layer_1" xmlns="http://www.w3.org/2000/svg" xmlns:xlink="http://www.w3.org/1999/xlink" x="0px" y="0px"
	 viewBox="0 0 448 512" style="enable-background:new 0 0 448 512;" xml:space="preserve">
<style type="text/css">
	.st0{fill:#8B8B8B;}
</style>
<path class="st0" d="M87.9,32.1c-48.3,0-87.7,39.5-87.7,87.7v272.3c0,48.3,39.5,87.7,87.7,87.7h272.3c48.3,0,87.7-39.5,87.7-87.7
	V119.9c0-48.3-39.5-87.7-87.7-87.7H87.9z M109.9,106c23.1,0,37.4,15.2,37.8,35.2c0,19.5-14.7,35.1-38.3,35.1h-0.4
	c-22.7,0-37.4-15.6-37.4-35.1C71.7,121.2,86.8,106,109.9,106L109.9,106z M309.3,199.3c44.5,0,77.8,29.1,77.8,91.6v116.7h-67.6V298.7
	c0-27.4-9.8-46-34.3-46c-18.7,0-29.8,12.6-34.7,24.7c-1.8,4.3-2.2,10.4-2.2,16.5v113.6h-67.6c0,0,0.9-184.4,0-203.5h67.6v28.8
	C257.3,219,273.4,199.3,309.3,199.3L309.3,199.3z M75.7,204.1h67.6v203.5H75.7V204.1z"/>
</svg>
